<svg width="960" height="170" viewBox="0 0 960 170" fill="none" xmlns="http://www.w3.org/2000/svg">
  <defs>
    <linearGradient id="sky" x1="0" y1="0" x2="0" y2="1">
      <stop offset="0" stop-color="#1A1140"/>
      <stop offset="1" stop-color="#0A1026"/>
    </linearGradient>
    <linearGradient id="ground" x1="0" y1="0" x2="0" y2="1">
      <stop offset="0" stop-color="#334155"/>
      <stop offset="1" stop-color="#1E293B"/>
    </linearGradient>
    <pattern id="scan" width="4" height="4" patternUnits="userSpaceOnUse">
      <rect width="4" height="2" fill="#FFFFFF" fill-opacity="0.025"/>
    </pattern>
    <filter id="softGlow" x="-50%" y="-50%" width="200%" height="200%">
      <feGaussianBlur stdDeviation="1.8" result="b"/>
      <feMerge>
        <feMergeNode in="b"/>
        <feMergeNode in="SourceGraphic"/>
      </feMerge>
    </filter>
    <g id="coin">
      <circle cx="0" cy="0" r="7" fill="#FCD34D"/>
      <circle cx="0" cy="0" r="4" fill="#F59E0B"/>
      <rect x="-0.7" y="-5" width="1.4" height="10" fill="#FDE68A"/>
      <animateTransform attributeName="transform" type="scale" values="1 1;0.2 1;1 1" dur="0.7s" repeatCount="indefinite"/>
    </g>
    <g id="slime">
      <rect x="-9" y="-8" width="18" height="13" rx="5" fill="#38BDF8"/>
      <circle cx="-3" cy="-2" r="1.3" fill="#0F172A"/>
      <circle cx="3" cy="-2" r="1.3" fill="#0F172A"/>
      <path d="M-4 3 C-2 5 2 5 4 3" stroke="#0F172A" stroke-width="1"/>
    </g>
  </defs>

  <rect width="960" height="170" rx="14" fill="url(#sky)"/>
  <rect x="1" y="1" width="958" height="168" rx="13" stroke="#60A5FA" stroke-opacity="0.35"/>

  <g opacity="0.22" fill="#312E81">
    <path d="M0 130 L110 80 L220 130 Z"/>
    <path d="M180 130 L320 72 L440 130 Z"/>
    <path d="M410 130 L550 84 L700 130 Z"/>
    <path d="M650 130 L790 76 L940 130 Z"/>
  </g>

  <g opacity="0.4" fill="#3730A3">
    <path d="M0 130 L90 96 L170 130 Z">
      <animateTransform attributeName="transform" type="translate" values="0 0;-90 0" dur="6s" repeatCount="indefinite"/>
    </path>
    <path d="M170 130 L290 92 L380 130 Z">
      <animateTransform attributeName="transform" type="translate" values="0 0;-90 0" dur="6s" repeatCount="indefinite"/>
    </path>
    <path d="M380 130 L520 88 L640 130 Z">
      <animateTransform attributeName="transform" type="translate" values="0 0;-90 0" dur="6s" repeatCount="indefinite"/>
    </path>
    <path d="M620 130 L760 96 L900 130 Z">
      <animateTransform attributeName="transform" type="translate" values="0 0;-90 0" dur="6s" repeatCount="indefinite"/>
    </path>
  </g>

  <g opacity="0.5" fill="#93C5FD">
    <rect x="850" y="28" width="30" height="5" rx="2">
      <animate attributeName="x" values="980;-70" dur="11s" repeatCount="indefinite"/>
    </rect>
    <rect x="880" y="36" width="22" height="4" rx="2">
      <animate attributeName="x" values="1030;-60" dur="12s" repeatCount="indefinite"/>
    </rect>
    <rect x="830" y="42" width="34" height="5" rx="2">
      <animate attributeName="x" values="1080;-80" dur="10.5s" repeatCount="indefinite"/>
    </rect>
  </g>

  <g>
    <rect x="14" y="12" width="932" height="24" rx="4" fill="#0B1220" fill-opacity="0.76"/>
    <rect x="24" y="19" width="70" height="10" rx="2" fill="#22D3EE" fill-opacity="0.25"/>
    <rect x="98" y="19" width="110" height="10" rx="2" fill="#22D3EE"/>
    <rect x="786" y="18" width="42" height="12" rx="2" fill="#F59E0B"/>
    <rect x="834" y="18" width="18" height="12" rx="2" fill="#F43F5E"/>
    <rect x="856" y="18" width="18" height="12" rx="2" fill="#F43F5E"/>
    <rect x="878" y="18" width="18" height="12" rx="2" fill="#F43F5E"/>
  </g>

  <g>
    <rect x="0" y="126" width="960" height="44" fill="url(#ground)"/>
    <rect x="0" y="126" width="960" height="3" fill="#64748B"/>
    <g fill="#475569" opacity="0.75">
      <rect x="0" y="137" width="36" height="4"><animate attributeName="x" values="0;-36" dur="0.35s" repeatCount="indefinite"/></rect>
      <rect x="36" y="137" width="36" height="4"><animate attributeName="x" values="36;0" dur="0.35s" repeatCount="indefinite"/></rect>
      <rect x="72" y="137" width="36" height="4"><animate attributeName="x" values="72;36" dur="0.35s" repeatCount="indefinite"/></rect>
      <rect x="108" y="137" width="36" height="4"><animate attributeName="x" values="108;72" dur="0.35s" repeatCount="indefinite"/></rect>
      <rect x="144" y="137" width="36" height="4"><animate attributeName="x" values="144;108" dur="0.35s" repeatCount="indefinite"/></rect>
      <rect x="180" y="137" width="36" height="4"><animate attributeName="x" values="180;144" dur="0.35s" repeatCount="indefinite"/></rect>
      <rect x="216" y="137" width="36" height="4"><animate attributeName="x" values="216;180" dur="0.35s" repeatCount="indefinite"/></rect>
      <rect x="252" y="137" width="36" height="4"><animate attributeName="x" values="252;216" dur="0.35s" repeatCount="indefinite"/></rect>
      <rect x="288" y="137" width="36" height="4"><animate attributeName="x" values="288;252" dur="0.35s" repeatCount="indefinite"/></rect>
      <rect x="324" y="137" width="36" height="4"><animate attributeName="x" values="324;288" dur="0.35s" repeatCount="indefinite"/></rect>
      <rect x="360" y="137" width="36" height="4"><animate attributeName="x" values="360;324" dur="0.35s" repeatCount="indefinite"/></rect>
      <rect x="396" y="137" width="36" height="4"><animate attributeName="x" values="396;360" dur="0.35s" repeatCount="indefinite"/></rect>
      <rect x="432" y="137" width="36" height="4"><animate attributeName="x" values="432;396" dur="0.35s" repeatCount="indefinite"/></rect>
      <rect x="468" y="137" width="36" height="4"><animate attributeName="x" values="468;432" dur="0.35s" repeatCount="indefinite"/></rect>
      <rect x="504" y="137" width="36" height="4"><animate attributeName="x" values="504;468" dur="0.35s" repeatCount="indefinite"/></rect>
      <rect x="540" y="137" width="36" height="4"><animate attributeName="x" values="540;504" dur="0.35s" repeatCount="indefinite"/></rect>
      <rect x="576" y="137" width="36" height="4"><animate attributeName="x" values="576;540" dur="0.35s" repeatCount="indefinite"/></rect>
      <rect x="612" y="137" width="36" height="4"><animate attributeName="x" values="612;576" dur="0.35s" repeatCount="indefinite"/></rect>
      <rect x="648" y="137" width="36" height="4"><animate attributeName="x" values="648;612" dur="0.35s" repeatCount="indefinite"/></rect>
      <rect x="684" y="137" width="36" height="4"><animate attributeName="x" values="684;648" dur="0.35s" repeatCount="indefinite"/></rect>
      <rect x="720" y="137" width="36" height="4"><animate attributeName="x" values="720;684" dur="0.35s" repeatCount="indefinite"/></rect>
      <rect x="756" y="137" width="36" height="4"><animate attributeName="x" values="756;720" dur="0.35s" repeatCount="indefinite"/></rect>
      <rect x="792" y="137" width="36" height="4"><animate attributeName="x" values="792;756" dur="0.35s" repeatCount="indefinite"/></rect>
      <rect x="828" y="137" width="36" height="4"><animate attributeName="x" values="828;792" dur="0.35s" repeatCount="indefinite"/></rect>
      <rect x="864" y="137" width="36" height="4"><animate attributeName="x" values="864;828" dur="0.35s" repeatCount="indefinite"/></rect>
      <rect x="900" y="137" width="36" height="4"><animate attributeName="x" values="900;864" dur="0.35s" repeatCount="indefinite"/></rect>
      <rect x="936" y="137" width="36" height="4"><animate attributeName="x" values="936;900" dur="0.35s" repeatCount="indefinite"/></rect>
    </g>
  </g>

  <g opacity="0.95">
    <use href="#coin">
      <animateMotion path="M1000 92 L-40 92" dur="3.2s" repeatCount="indefinite"/>
    </use>
    <use href="#coin">
      <animateMotion path="M1090 74 L-30 74" dur="3.2s" begin="0.45s" repeatCount="indefinite"/>
    </use>
    <use href="#coin">
      <animateMotion path="M1180 92 L-20 92" dur="3.2s" begin="0.9s" repeatCount="indefinite"/>
    </use>
  </g>

  <g opacity="0.95">
    <use href="#slime">
      <animateMotion path="M1040 122 L-40 122" dur="2.8s" repeatCount="indefinite"/>
    </use>
    <use href="#slime">
      <animateMotion path="M1220 122 L-30 122" dur="3.4s" begin="1.5s" repeatCount="indefinite"/>
    </use>
  </g>

  <g transform="translate(210 108)">
    <animateTransform attributeName="transform" type="translate" values="210 108;210 70;210 108" keyTimes="0;0.48;1" dur="0.78s" repeatCount="indefinite"/>

    <rect x="-9" y="-22" width="18" height="20" rx="2" fill="#DC2626"/>
    <rect x="-11" y="-26" width="22" height="6" rx="2" fill="#B91C1C"/>
    <rect x="-7" y="-38" width="14" height="12" rx="2" fill="#E2E8F0"/>
    <rect x="-5" y="-36" width="3" height="3" fill="#0F172A"/>
    <rect x="2" y="-36" width="3" height="3" fill="#0F172A"/>

    <rect x="-16" y="-20" width="7" height="15" rx="2" fill="#CBD5E1">
      <animateTransform attributeName="transform" type="rotate" values="-28 -12 -10;14 -12 -10;-28 -12 -10" dur="0.26s" repeatCount="indefinite"/>
    </rect>
    <rect x="9" y="-20" width="7" height="15" rx="2" fill="#CBD5E1">
      <animateTransform attributeName="transform" type="rotate" values="24 12 -10;-20 12 -10;24 12 -10" dur="0.26s" repeatCount="indefinite"/>
    </rect>

    <rect x="-9" y="-2" width="7" height="19" rx="2" fill="#94A3B8">
      <animateTransform attributeName="transform" type="rotate" values="26 -6 -2;-22 -6 -2;26 -6 -2" dur="0.24s" repeatCount="indefinite"/>
    </rect>
    <rect x="2" y="-2" width="7" height="19" rx="2" fill="#94A3B8">
      <animateTransform attributeName="transform" type="rotate" values="-24 5 -2;22 5 -2;-24 5 -2" dur="0.24s" repeatCount="indefinite"/>
    </rect>

    <rect x="16" y="-20" width="4" height="25" fill="#E2E8F0"/>
    <polygon points="20,-20 30,-10 20,-4" fill="#94A3B8"/>
    <path d="M30 -10 L46 -17" stroke="#E2E8F0" stroke-width="2" filter="url(#softGlow)">
      <animate attributeName="opacity" values="0;1;0" dur="0.24s" repeatCount="indefinite"/>
    </path>
  </g>

  <rect width="960" height="170" fill="url(#scan)" rx="14"/>
</svg>
