<svg width="960" height="170" viewBox="0 0 960 170" fill="none" xmlns="http://www.w3.org/2000/svg">
  <defs>
    <linearGradient id="bg" x1="0" y1="0" x2="960" y2="170" gradientUnits="userSpaceOnUse">
      <stop stop-color="#0B1220"/>
      <stop offset="1" stop-color="#111827"/>
    </linearGradient>
    <linearGradient id="blade" x1="0" y1="0" x2="0" y2="1">
      <stop offset="0" stop-color="#E2E8F0"/>
      <stop offset="1" stop-color="#94A3B8"/>
    </linearGradient>
    <filter id="glow" x="-50%" y="-50%" width="200%" height="200%">
      <feGaussianBlur stdDeviation="2.2" result="blur"/>
      <feMerge>
        <feMergeNode in="blur"/>
        <feMergeNode in="SourceGraphic"/>
      </feMerge>
    </filter>
  </defs>

  <rect width="960" height="170" rx="14" fill="url(#bg)"/>

  <g opacity="0.2">
    <path d="M0 130 H960" stroke="#334155" stroke-width="2"/>
    <path d="M0 100 H960" stroke="#1F2937" stroke-width="1"/>
  </g>

  <g>
    <rect x="0" y="130" width="960" height="6" fill="#1E293B"/>
    <g fill="#334155">
      <rect x="0" y="132" width="48" height="4">
        <animate attributeName="x" values="0;-48" dur="0.6s" repeatCount="indefinite"/>
      </rect>
      <rect x="48" y="132" width="48" height="4">
        <animate attributeName="x" values="48;0" dur="0.6s" repeatCount="indefinite"/>
      </rect>
      <rect x="96" y="132" width="48" height="4">
        <animate attributeName="x" values="96;48" dur="0.6s" repeatCount="indefinite"/>
      </rect>
      <rect x="144" y="132" width="48" height="4">
        <animate attributeName="x" values="144;96" dur="0.6s" repeatCount="indefinite"/>
      </rect>
      <rect x="192" y="132" width="48" height="4">
        <animate attributeName="x" values="192;144" dur="0.6s" repeatCount="indefinite"/>
      </rect>
      <rect x="240" y="132" width="48" height="4">
        <animate attributeName="x" values="240;192" dur="0.6s" repeatCount="indefinite"/>
      </rect>
      <rect x="288" y="132" width="48" height="4">
        <animate attributeName="x" values="288;240" dur="0.6s" repeatCount="indefinite"/>
      </rect>
      <rect x="336" y="132" width="48" height="4">
        <animate attributeName="x" values="336;288" dur="0.6s" repeatCount="indefinite"/>
      </rect>
      <rect x="384" y="132" width="48" height="4">
        <animate attributeName="x" values="384;336" dur="0.6s" repeatCount="indefinite"/>
      </rect>
      <rect x="432" y="132" width="48" height="4">
        <animate attributeName="x" values="432;384" dur="0.6s" repeatCount="indefinite"/>
      </rect>
      <rect x="480" y="132" width="48" height="4">
        <animate attributeName="x" values="480;432" dur="0.6s" repeatCount="indefinite"/>
      </rect>
      <rect x="528" y="132" width="48" height="4">
        <animate attributeName="x" values="528;480" dur="0.6s" repeatCount="indefinite"/>
      </rect>
      <rect x="576" y="132" width="48" height="4">
        <animate attributeName="x" values="576;528" dur="0.6s" repeatCount="indefinite"/>
      </rect>
      <rect x="624" y="132" width="48" height="4">
        <animate attributeName="x" values="624;576" dur="0.6s" repeatCount="indefinite"/>
      </rect>
      <rect x="672" y="132" width="48" height="4">
        <animate attributeName="x" values="672;624" dur="0.6s" repeatCount="indefinite"/>
      </rect>
      <rect x="720" y="132" width="48" height="4">
        <animate attributeName="x" values="720;672" dur="0.6s" repeatCount="indefinite"/>
      </rect>
      <rect x="768" y="132" width="48" height="4">
        <animate attributeName="x" values="768;720" dur="0.6s" repeatCount="indefinite"/>
      </rect>
      <rect x="816" y="132" width="48" height="4">
        <animate attributeName="x" values="816;768" dur="0.6s" repeatCount="indefinite"/>
      </rect>
      <rect x="864" y="132" width="48" height="4">
        <animate attributeName="x" values="864;816" dur="0.6s" repeatCount="indefinite"/>
      </rect>
      <rect x="912" y="132" width="48" height="4">
        <animate attributeName="x" values="912;864" dur="0.6s" repeatCount="indefinite"/>
      </rect>
    </g>
  </g>

  <g>
    <path d="M0 0 L6 0 L3 6 Z" fill="#94A3B8" opacity="0.6">
      <animateMotion path="M980 116 L-30 116" dur="2.8s" repeatCount="indefinite"/>
    </path>
    <path d="M0 0 L6 0 L3 6 Z" fill="#64748B" opacity="0.35">
      <animateMotion path="M1030 112 L-20 112" dur="3.6s" repeatCount="indefinite"/>
    </path>
    <path d="M0 0 L6 0 L3 6 Z" fill="#94A3B8" opacity="0.5">
      <animateMotion path="M1090 120 L-10 120" dur="4.1s" repeatCount="indefinite"/>
    </path>
  </g>

  <g>
    <rect x="0" y="0" width="14" height="34" rx="2" fill="#0F172A">
      <animateMotion path="M1000 96 L-60 96" dur="1.8s" repeatCount="indefinite"/>
    </rect>
    <rect x="0" y="0" width="10" height="28" rx="2" fill="#1E293B">
      <animateMotion path="M1080 102 L-40 102" dur="2.3s" repeatCount="indefinite"/>
    </rect>
  </g>

  <g transform="translate(170 90)">
    <animateTransform attributeName="transform" type="translate" values="170 90;170 56;170 90" keyTimes="0;0.5;1" dur="0.95s" repeatCount="indefinite"/>

    <circle cx="0" cy="-18" r="8" fill="#F8FAFC"/>
    <rect x="-7" y="-10" width="14" height="24" rx="4" fill="#E11D48"/>
    <rect x="-3" y="14" width="6" height="14" rx="2" fill="#F1F5F9"/>

    <rect x="-12" y="-2" width="6" height="16" rx="2" fill="#CBD5E1">
      <animateTransform attributeName="transform" type="rotate" values="-25 -9 6;15 -9 6;-25 -9 6" dur="0.32s" repeatCount="indefinite"/>
    </rect>
    <rect x="6" y="-2" width="6" height="16" rx="2" fill="#CBD5E1">
      <animateTransform attributeName="transform" type="rotate" values="20 9 6;-25 9 6;20 9 6" dur="0.32s" repeatCount="indefinite"/>
    </rect>

    <rect x="-7" y="27" width="5" height="16" rx="2" fill="#94A3B8">
      <animateTransform attributeName="transform" type="rotate" values="20 -4 27;-25 -4 27;20 -4 27" dur="0.34s" repeatCount="indefinite"/>
    </rect>
    <rect x="2" y="27" width="5" height="16" rx="2" fill="#94A3B8">
      <animateTransform attributeName="transform" type="rotate" values="-20 4 27;25 4 27;-20 4 27" dur="0.34s" repeatCount="indefinite"/>
    </rect>

    <rect x="11" y="-6" width="4" height="22" rx="1" fill="url(#blade)"/>
    <polygon points="15,-6 22,2 15,5" fill="#CBD5E1"/>
    <g filter="url(#glow)">
      <path d="M22 2 L35 -6" stroke="#E2E8F0" stroke-width="1.2" opacity="0.9">
        <animate attributeName="opacity" values="0;1;0" dur="0.24s" repeatCount="indefinite"/>
      </path>
    </g>
  </g>
</svg>
